<?xml version="1.0" encoding="UTF-8" standalone="no"?>
<svg
   xmlns:dc="http://purl.org/dc/elements/1.1/"
   xmlns:cc="http://creativecommons.org/ns#"
   xmlns:rdf="http://www.w3.org/1999/02/22-rdf-syntax-ns#"
   xmlns:svg="http://www.w3.org/2000/svg"
   xmlns="http://www.w3.org/2000/svg"
   xmlns:sodipodi="http://sodipodi.sourceforge.net/DTD/sodipodi-0.dtd"
   xmlns:inkscape="http://www.inkscape.org/namespaces/inkscape"
   id="svg2"
   viewBox="0 0 30 30"
   version="1.1"
   inkscape:version="0.91 r13725"
   sodipodi:docname="icon_line.svg">
  <defs
     id="defs4349" />
  <sodipodi:namedview
     pagecolor="#ffffff"
     bordercolor="#666666"
     borderopacity="1"
     objecttolerance="10"
     gridtolerance="10"
     guidetolerance="10"
     inkscape:pageopacity="0"
     inkscape:pageshadow="2"
     inkscape:window-width="669"
     inkscape:window-height="480"
     id="namedview4347"
     showgrid="false"
     inkscape:zoom="7.8666667"
     inkscape:cx="15"
     inkscape:cy="15"
     inkscape:window-x="475"
     inkscape:window-y="227"
     inkscape:window-maximized="0"
     inkscape:current-layer="svg2" />
  <metadata
     id="metadata17">
    <rdf:RDF>
      <cc:Work
         rdf:about="">
        <dc:format>image/svg+xml</dc:format>
        <dc:type
           rdf:resource="http://purl.org/dc/dcmitype/StillImage" />
        <dc:title />
      </cc:Work>
    </rdf:RDF>
  </metadata>
  <path
     d="M 24.498047 4.0273438 A 1.7013 1.7013 0 0 0 22.796875 5.7285156 A 1.7013 1.7013 0 0 0 22.974609 6.4824219 L 5.828125 22.697266 A 1.7013 1.7013 0 0 0 4.9902344 22.476562 A 1.7013 1.7013 0 0 0 3.2890625 24.177734 A 1.7013 1.7013 0 0 0 4.9902344 25.878906 A 1.7013 1.7013 0 0 0 6.6914062 24.177734 A 1.7013 1.7013 0 0 0 6.5136719 23.423828 L 23.662109 7.2089844 A 1.7013 1.7013 0 0 0 24.498047 7.4296875 A 1.7013 1.7013 0 0 0 26.199219 5.7285156 A 1.7013 1.7013 0 0 0 24.498047 4.0273438 z "
     id="use4153" />
</svg>
