<?xml version="1.0" encoding="UTF-8" standalone="no"?>
<svg
   xmlns:dc="http://purl.org/dc/elements/1.1/"
   xmlns:cc="http://creativecommons.org/ns#"
   xmlns:rdf="http://www.w3.org/1999/02/22-rdf-syntax-ns#"
   xmlns:svg="http://www.w3.org/2000/svg"
   xmlns="http://www.w3.org/2000/svg"
   xmlns:sodipodi="http://sodipodi.sourceforge.net/DTD/sodipodi-0.dtd"
   xmlns:inkscape="http://www.inkscape.org/namespaces/inkscape"
   id="svg2"
   viewBox="0 0 30 30"
   version="1.1"
   inkscape:version="0.91 r13725"
   sodipodi:docname="icon_poly.svg">
  <defs
     id="defs4939" />
  <sodipodi:namedview
     pagecolor="#ffffff"
     bordercolor="#666666"
     borderopacity="1"
     objecttolerance="10"
     gridtolerance="10"
     guidetolerance="10"
     inkscape:pageopacity="0"
     inkscape:pageshadow="2"
     inkscape:window-width="1439"
     inkscape:window-height="987"
     id="namedview4937"
     showgrid="false"
     inkscape:zoom="7.8666667"
     inkscape:cx="15"
     inkscape:cy="15"
     inkscape:window-x="154"
     inkscape:window-y="0"
     inkscape:window-maximized="0"
     inkscape:current-layer="g5481" />
  <metadata
     id="metadata17">
    <rdf:RDF>
      <cc:Work
         rdf:about="">
        <dc:format>image/svg+xml</dc:format>
        <dc:type
           rdf:resource="http://purl.org/dc/dcmitype/StillImage" />
        <dc:title />
      </cc:Work>
    </rdf:RDF>
  </metadata>
  <g
     id="g5481">
    <path
       style="color:#000000;font-style:normal;font-variant:normal;font-weight:normal;font-stretch:normal;font-size:medium;line-height:normal;font-family:sans-serif;text-indent:0;text-align:start;text-decoration:none;text-decoration-line:none;text-decoration-style:solid;text-decoration-color:#000000;letter-spacing:normal;word-spacing:normal;text-transform:none;direction:ltr;block-progression:tb;writing-mode:lr-tb;baseline-shift:baseline;text-anchor:start;white-space:normal;clip-rule:nonzero;display:inline;overflow:visible;visibility:visible;opacity:0.96460003;isolation:auto;mix-blend-mode:normal;color-interpolation:sRGB;color-interpolation-filters:linearRGB;solid-color:#000000;solid-opacity:1;fill:#000000;fill-opacity:1;fill-rule:nonzero;stroke:none;stroke-width:1;stroke-linecap:round;stroke-linejoin:miter;stroke-miterlimit:4;stroke-dasharray:none;stroke-dashoffset:0;stroke-opacity:1;color-rendering:auto;image-rendering:auto;shape-rendering:auto;text-rendering:auto;enable-background:accumulate"
       d="M 4.9902344 4.0273438 A 1.7013 1.7013 0 0 0 3.2890625 5.7285156 A 1.7013 1.7013 0 0 0 4.4902344 7.3535156 L 4.4902344 22.552734 A 1.7013 1.7013 0 0 0 3.2890625 24.177734 A 1.7013 1.7013 0 0 0 4.9902344 25.878906 A 1.7013 1.7013 0 0 0 6.6152344 24.677734 L 22.875 24.677734 A 1.7013 1.7013 0 0 0 24.498047 25.878906 A 1.7013 1.7013 0 0 0 26.199219 24.177734 A 1.7013 1.7013 0 0 0 24.998047 22.550781 L 24.998047 7.3535156 A 1.7013 1.7013 0 0 0 26.199219 5.7285156 A 1.7013 1.7013 0 0 0 24.498047 4.0273438 A 1.7013 1.7013 0 0 0 22.873047 5.2285156 L 6.6152344 5.2285156 A 1.7013 1.7013 0 0 0 4.9902344 4.0273438 z M 6.6152344 6.2285156 L 22.873047 6.2285156 A 1.7013 1.7013 0 0 0 23.998047 7.3535156 L 23.998047 22.554688 A 1.7013 1.7013 0 0 0 22.871094 23.677734 L 6.6152344 23.677734 A 1.7013 1.7013 0 0 0 5.4902344 22.550781 L 5.4902344 7.3535156 A 1.7013 1.7013 0 0 0 6.6152344 6.2285156 z "
       id="rect4147" />
  </g>
</svg>
