<?xml version="1.0" encoding="UTF-8" standalone="no"?>
<svg
   xmlns:dc="http://purl.org/dc/elements/1.1/"
   xmlns:cc="http://creativecommons.org/ns#"
   xmlns:rdf="http://www.w3.org/1999/02/22-rdf-syntax-ns#"
   xmlns:svg="http://www.w3.org/2000/svg"
   xmlns="http://www.w3.org/2000/svg"
   xmlns:sodipodi="http://sodipodi.sourceforge.net/DTD/sodipodi-0.dtd"
   xmlns:inkscape="http://www.inkscape.org/namespaces/inkscape"
   id="svg2"
   version="1.1"
   inkscape:version="0.91 r13725"
   sodipodi:docname="icon_point.svg"
   width="30"
   height="30">
  <metadata
     id="metadata17">
    <rdf:RDF>
      <cc:Work
         rdf:about="">
        <dc:format>image/svg+xml</dc:format>
        <dc:type
           rdf:resource="http://purl.org/dc/dcmitype/StillImage" />
        <dc:title></dc:title>
      </cc:Work>
    </rdf:RDF>
  </metadata>
  <defs
     id="defs15" />
  <sodipodi:namedview
     pagecolor="#ffffff"
     bordercolor="#666666"
     borderopacity="1"
     objecttolerance="10"
     gridtolerance="10"
     guidetolerance="10"
     inkscape:pageopacity="0"
     inkscape:pageshadow="2"
     inkscape:window-width="1326"
     inkscape:window-height="769"
     id="namedview13"
     showgrid="false"
     inkscape:object-nodes="true"
     inkscape:snap-object-midpoints="true"
     inkscape:zoom="13.225347"
     inkscape:cx="15.254237"
     inkscape:cy="15.042373"
     inkscape:window-x="0"
     inkscape:window-y="0"
     inkscape:window-maximized="0"
     inkscape:current-layer="g4262"
     showguides="false" />
  <g
     id="g4262">
    <path
       style="opacity:0.96460176;fill:#000000;fill-opacity:1;stroke:none;stroke-width:1;stroke-linecap:round;stroke-miterlimit:4;stroke-dasharray:none;stroke-opacity:1"
       d="M 24.498047 4.0273438 A 1.7012788 1.7012788 0 0 0 22.796875 5.7285156 A 1.7012788 1.7012788 0 0 0 24.498047 7.4296875 A 1.7012788 1.7012788 0 0 0 26.199219 5.7285156 A 1.7012788 1.7012788 0 0 0 24.498047 4.0273438 z M 4.9902344 22.476562 A 1.7012788 1.7012788 0 0 0 3.2890625 24.177734 A 1.7012788 1.7012788 0 0 0 4.9902344 25.878906 A 1.7012788 1.7012788 0 0 0 6.6914062 24.177734 A 1.7012788 1.7012788 0 0 0 4.9902344 22.476562 z M 24.498047 22.476562 A 1.7012788 1.7012788 0 0 0 22.796875 24.177734 A 1.7012788 1.7012788 0 0 0 24.498047 25.878906 A 1.7012788 1.7012788 0 0 0 26.199219 24.177734 A 1.7012788 1.7012788 0 0 0 24.498047 22.476562 z "
       id="use4151" />
  </g>
</svg>
