<?xml version="1.0" encoding="UTF-8" standalone="no"?>
<!-- Created with Inkscape (http://www.inkscape.org/) -->

<svg
   xmlns:dc="http://purl.org/dc/elements/1.1/"
   xmlns:cc="http://creativecommons.org/ns#"
   xmlns:rdf="http://www.w3.org/1999/02/22-rdf-syntax-ns#"
   xmlns:svg="http://www.w3.org/2000/svg"
   xmlns="http://www.w3.org/2000/svg"
   xmlns:sodipodi="http://sodipodi.sourceforge.net/DTD/sodipodi-0.dtd"
   xmlns:inkscape="http://www.inkscape.org/namespaces/inkscape"
   id="svg2"
   version="1.1"
   inkscape:version="0.91 r13725"
   xml:space="preserve"
   width="726.02502"
   height="222.45"
   viewBox="0 0 726.02502 222.45"
   sodipodi:docname="WHO-EN-C-H.svg"><metadata
     id="metadata8"><rdf:RDF><cc:Work
         rdf:about=""><dc:format>image/svg+xml</dc:format><dc:type
           rdf:resource="http://purl.org/dc/dcmitype/StillImage" /><dc:title></dc:title></cc:Work></rdf:RDF></metadata><defs
     id="defs6" /><sodipodi:namedview
     pagecolor="#ffffff"
     bordercolor="#666666"
     borderopacity="1"
     objecttolerance="10"
     gridtolerance="10"
     guidetolerance="10"
     inkscape:pageopacity="0"
     inkscape:pageshadow="2"
     inkscape:window-width="1678"
     inkscape:window-height="1002"
     id="namedview4"
     showgrid="false"
     inkscape:zoom="0.49171859"
     inkscape:cx="363.01251"
     inkscape:cy="111.225"
     inkscape:window-x="0"
     inkscape:window-y="0"
     inkscape:window-maximized="0"
     inkscape:current-layer="g12" /><g
     id="g10"
     inkscape:groupmode="layer"
     inkscape:label="ink_ext_XXXXXX"
     transform="matrix(1.25,0,0,-1.25,0,222.45)"><g
       id="g12"
       transform="scale(0.1,0.1)"><path
         d="m 1640.14,1453.83 c 38.61,-46 106.02,-73.1 145.6,-119.19 -28.31,136.29 -133.52,247.64 -257.95,274.15 60.61,-45.67 73.72,-108.94 112.35,-154.96 z M 144.828,1108.3 c 85.641,186.49 213.555,147 267.684,324.7 -30.555,-54.5 -170.254,-77.48 -235.106,-217.2 33.114,83.02 16.52,209.98 72.489,278.52 C 82.5,1370.84 153.836,1171 144.828,1108.3 Z M 300.02,661.07 C 315.391,588.379 270.258,483.629 342.008,383.48 267.609,466.84 110.199,488.039 45.7969,614.82 126.125,305.02 335.266,368.832 429.711,301.5 352.055,413.031 415.57,487.16 300.02,661.07 Z M 275.855,466.539 C 229.57,639.719 311.813,699.398 249.32,865.637 242.789,772.039 180.43,726.391 222.516,555.262 148.227,700.27 33.2773,754.219 0,853.68 2.32031,581.789 220.723,541.559 275.855,466.539 Z M 611.301,176.238 C 547.027,265.219 590.898,315.531 410.258,477.148 448.531,418.109 409.086,343.922 530.902,228.52 411.738,298.832 247.266,268.762 168.043,362.68 304.152,102.219 543.488,208.629 611.301,176.238 Z m 874.169,52.282 c 121.84,115.402 82.39,189.589 120.66,248.628 -180.64,-161.617 -136.76,-211.929 -201.05,-300.91 67.83,32.391 307.16,-74.019 443.27,186.442 -79.22,-93.918 -243.69,-63.848 -362.88,-134.16 z m 188.91,154.96 c 71.76,100.149 26.62,204.899 41.99,277.59 -115.54,-173.91 -52.04,-248.039 -129.7,-359.57 94.48,67.332 303.6,3.52 383.92,313.32 -64.4,-126.781 -221.8,-147.98 -296.21,-231.34 z M 1385.84,163.941 c -70.63,18.86 -143.36,28.207 -197.51,29.571 -67.53,1.679 -127.88,-11.082 -180.13,-30.571 -52.259,19.489 -112.598,32.25 -180.13,30.571 C 773.906,192.148 701.191,182.801 630.551,163.941 521.938,134.988 427.973,112.59 346.133,154.02 424.555,84.3906 516.148,59.5586 648.449,73.8008 c 110.16,11.8789 199.004,66.8982 302.852,66.1792 1.375,-0.019 2.699,-0.109 4.054,-0.14 C 845.934,84.6211 784.18,6.76172 784.18,6.76172 L 834.262,0 c 0,0 52.742,105.969 173.928,133.5 C 1129.38,105.969 1182.12,0 1182.12,0 l 50.09,6.76172 c 0,0 -61.76,77.85938 -171.18,133.07828 1.36,0.031 2.67,0.121 4.05,0.14 103.85,0.719 192.7,-54.3003 302.86,-66.1792 132.31,-14.2422 223.89,10.5898 302.32,80.2192 -81.84,-41.43 -175.8,-19.032 -284.42,9.921 z M 256.742,1053.3 C 211.906,967.336 142.301,947.652 149.703,770.141 112.152,927.828 22.3672,986.477 23.5469,1087.29 -38.9375,824.375 127.887,793.121 170.746,682.922 c -6.301,157.953 94.5,189.785 85.996,370.378 z m 62.59,203.04 c -15.602,-21.82 -26.566,-31.11 -68.156,-65.35 -56.723,-46.72 -102.035,-108.17 -121.113,-197.728 4.312,96.388 -55.2349,234.918 -15.618,335.908 -153.3825,-216.54 8.731,-346.229 14.485,-424.6 39.636,150.88 131.008,152.06 190.402,351.77 z M 1886.34,993.262 c -19.09,89.558 -64.4,151.008 -121.12,197.728 -41.58,34.24 -52.56,43.53 -68.16,65.35 59.39,-199.71 150.77,-200.89 190.41,-351.77 5.76,78.371 167.86,208.06 14.48,424.6 39.6,-100.99 -19.93,-239.52 -15.61,-335.908 z M 2016.39,853.68 c -33.26,-99.461 -148.23,-153.41 -222.5,-298.418 42.08,171.129 -20.28,216.777 -26.82,310.375 -62.49,-166.239 19.75,-225.918 -26.54,-399.098 55.14,75.02 273.53,115.25 275.86,387.141 z m -256.75,199.62 c -8.5,-180.593 92.32,-212.425 86,-370.378 42.86,110.199 209.69,141.453 147.21,404.368 1.17,-100.813 -88.61,-159.462 -126.16,-317.149 7.4,177.511 -62.18,197.195 -107.05,283.159 z M 376.246,1453.83 c 38.629,46.02 51.738,109.29 112.348,154.96 -124.414,-26.51 -229.629,-137.86 -257.938,-274.15 39.574,46.09 106.977,73.19 145.59,119.19 z M 1603.87,1433 c 54.14,-177.7 182.06,-138.21 267.68,-324.7 -8.98,62.7 62.34,262.54 -105.05,386.02 55.97,-68.54 39.37,-195.5 72.49,-278.52 -64.85,139.72 -204.57,162.7 -235.12,217.2 z m -434.28,-100.9 c -32.17,13.3 -66.31,22.78 -101.9,27.76 -0.16,-7.52 -0.32,-15.19 -0.49,-22.79 32.8,-4.81 64.32,-13.59 94.04,-25.88 3.97,6.25 6.79,13.17 8.35,20.91 z m -25.92,219.93 6.86,6.15 -13,5.51 -34.23,0.66 -8.89,-6.17 -20.18,1.66 -0.24,-4.89 c 12.84,-0.83 25.35,-2.05 35.25,-3.74 l 16.66,1.5 17.77,-0.68 z m -65.88,-737.417 c 0,5.832 -7.66,11.524 -19.1,16.875 l -2.04,0.032 c -0.12,-4.727 -0.52,-27.864 -0.75,-39.2 14.08,6.348 21.89,13.121 21.89,22.293 z M 681.598,1249.21 c 0.777,4.67 1.683,8.42 2.898,12.56 -4.258,-1.07 -9.168,-1.55 -14.008,-1.45 l 11.11,-11.11 z m -159.118,159.12 81.012,-81.01 C 509.059,1228.29 450.473,1094.82 448.637,947.93 l -114.629,0 c 1.847,178.49 73.289,340.59 188.472,460.4 z m -49.449,-631.299 -6.761,1.258 -6.415,7.145 -32.128,2.847 9.988,-13.562 -29.844,5.668 7.848,7.16 -7.281,7.16 -21.493,-9.336 -7.703,-14.281 2.957,-32.61 24.672,-59.25 11.953,-18.582 6.821,-2.519 -18.77,35.512 -4.086,18.058 4.227,4.461 -2.571,9.969 11.235,-1.488 17.289,-26.172 4.328,-1.75 -0.481,19.082 6.985,-4.071 1.523,-10.41 18.223,-4.808 7.551,5.468 2.629,-1.839 -0.329,-13.93 8.043,-9.871 9.711,-2.192 21.27,-35.957 12.863,-3.589 3.996,16.82 C 551.684,614.43 578.246,580.219 608.32,549.441 L 527.297,468.41 C 411.152,586.809 338.16,747.68 334.117,925.277 l 114.656,0 c 1.418,-51.425 9.821,-101.14 24.258,-148.246 z m 113.192,148.246 c 0.41,-11.164 1.351,-22.195 2.613,-33.129 l -14.039,-3.171 -2.871,-14.286 -29.27,-37.121 0.746,-51.121 -29.992,-9.988 -16.418,-0.152 c -15.199,47.179 -24.086,97.168 -25.562,148.968 l 114.793,0 z m 25.683,-322.586 25.715,-15.019 5.328,-3.613 -18.629,-18.618 c -8.757,8.969 -17.097,18.329 -25.218,27.891 l 12.804,9.359 z m 104.715,611.499 81.027,-81.03 c -16.929,-18.57 -31.421,-39.4 -43.019,-61.95 l -5.664,0.36 -11.41,-3.58 -3.918,0.38 -12.172,-11.28 15.383,2.46 13.777,3.46 c -0.824,-1.75 -1.637,-3.5 -2.426,-5.26 l -12.062,-7.46 -5.711,0 -17.863,-13.57 -17.133,1.44 -24.977,-46.41 4.996,-9.297 -13.57,-14.98 -2.051,-19.543 -51.195,0 c 1.801,102.8 42.476,196.25 107.988,266.26 z m 83.047,-334.526 5.715,2.871 15.051,-11.293 -6.508,-5.332 16.836,-11.203 -1.043,12.047 8.953,14.863 9.406,-9.957 9.621,-13.808 -17.351,-3.864 7.867,-15.703 12.117,6.391 -1.562,5.031 9.015,6.141 5.336,24.945 c 6.586,-14.828 15.488,-28.43 26.317,-40.238 L 818.41,759.539 c -38.664,40.609 -64.5,93.492 -70.996,152.152 l 16.582,-17.695 15.598,0.324 20.074,-14.656 z m -116.375,85.66 2.141,22.848 13.566,7.848 24.285,-4.27 3.672,-4.414 c -2.109,-12.867 -3.363,-26.031 -3.691,-39.406 l -27.493,0 -12.48,17.394 z m -37.691,-78.656 -10.848,-16.984 -18.582,0 -1.434,1.082 c -3.16,17.8 -5.172,35.992 -5.879,54.511 l 34.575,0 -8.297,-27.652 10.465,-10.957 z M 721.391,662.52 c -8.309,8.582 -16.239,17.531 -23.762,26.832 l 3.516,28.98 -12.141,27.84 -2.852,43.547 -13.574,26.418 2.871,16.433 -16.414,31.395 -14.289,7.133 5.797,16.711 -5.992,13.218 5.91,15.063 15.695,0 5.524,9.187 26.773,0 4.184,-7.902 -5.024,-27.242 -3.261,-4.692 10.062,-21.91 -6.629,-3.644 -4.605,5.828 -1.93,-2.172 4.566,-13.004 7.852,-15.184 3.691,0.368 2.153,13.597 -3.817,5.012 -0.422,9.199 -1.136,19.02 5.605,33.644 -5.445,9.082 19.238,0 c 3.793,-70.304 33.149,-133.898 78.879,-181.746 L 721.391,662.52 Z M 1411.45,551.391 c 94.29,97.429 153.65,228.863 157.63,373.886 l 114.65,0 C 1679.71,748.641 1607.5,588.578 1492.47,470.371 l -81.02,81.02 z m -31.6,31.589 8.91,9.989 -8.41,44.32 -5.89,2.332 3.6,7.488 -19.15,6.063 -3.73,-15.883 -1.88,-20.078 -4.02,-3.66 -34.93,34.937 c 69.46,72.532 113.4,169.614 117.31,276.789 l 114.77,0 C 1542.47,786.5 1485.64,660.711 1395.45,567.391 l -15.6,15.589 z m -101.03,-107.109 10.79,23.141 -4.21,10.269 15.88,14 0,8.379 -13.55,8.43 11.21,22.371 16.79,21.93 -16.79,18.168 -12.62,0 -7.84,12.652 c 6.75,5.598 13.4,11.328 19.8,17.34 l 81.12,-81.129 c -30.38,-28.91 -64.12,-54.313 -100.58,-75.551 z m -15.51,223.66 -11,10.981 8.43,10.968 10.6,21.508 -4.14,6.09 7.05,15.953 -0.81,14.399 -4.24,14.89 -10,3.567 -3.69,-8.442 -5.96,1.598 c 8.64,13.762 17.74,26.707 23.97,41.891 l 10.32,4.445 5.77,7.805 2.8,-3.262 6.99,8.402 -5.6,7 5.14,1.387 9.34,-3.731 17.72,-0.48 10.73,5.598 27.97,7.453 -5.28,9.293 -1.8,11.261 15.02,-6.566 5.61,3.262 -2.81,11.679 -18.44,-6.91 -20.27,4.137 -15.44,31.57 87.73,0 C 1405.14,824.336 1363.73,732.91 1298.35,664.48 l -12.06,12.051 5.18,16.117 -9.33,35.442 -18.83,-28.559 z m -41.29,431.599 81.11,81.1 c 18.99,-20.57 35.78,-43.18 50.17,-67.37 l -10.13,-2.78 0.53,-18.12 30.45,-19.18 c 7.44,-16.53 13.78,-33.64 18.95,-51.25 l -5.31,-7.78 -10.96,-6.97 -2.77,-16.84 -7.49,-4.17 -6.22,-7.42 -6.39,2.28 -11.15,0.49 6.51,8.83 4.64,22.88 7.48,4.66 -21.92,20.99 -16.33,-5.59 -3.71,-15.4 -10.29,-11.19 -10.71,8.88 -3.79,9.4 6.09,3.79 3.39,-6.19 5.02,1.83 -2.16,10.33 -7.16,0.42 -0.47,-4.17 -4.68,-0.97 -25.16,29.38 -8.53,6.59 3.25,3.51 7.66,2.67 -7.08,2.77 c 0,0 -8.9,-2.02 -9.92,-2.02 l 5.05,-6.38 -12.77,0.24 c -7.63,11.51 -16.02,22.48 -25.2,32.75 z m 12.58,-442.341 -24.77,7.07 -7.47,-2.769 -13.99,10.73 -13.16,4.739 c 6.51,4.671 12.82,9.601 18.91,14.793 l 20.4,-14.391 15.56,-8.231 7.72,-7.718 -3.2,-4.223 z m -43.92,380.761 10.27,2.36 -0.49,2.46 -10.23,6.84 3.5,21.63 12.25,12.25 c 7.71,-8.71 14.84,-17.95 21.35,-27.63 l -4.31,-13.29 -11.22,7.97 -8.51,-2.34 4.19,-7.89 4.21,0 -4.65,-11.67 -3.28,4.65 -13.08,4.66 z m 137.66,-78.851 20.54,11.211 20.98,3.28 4.64,10.24 11.67,7.02 4.51,9.78 3.64,16.94 c 1.69,-5.97 3.22,-12.01 4.63,-18.1 l -11.11,-33.16 -0.48,-11.199 16.19,21.539 c 3.35,-19.672 5.33,-39.801 5.69,-60.32 l -100.49,0 -2.33,8.73 11.67,9.305 2.31,5.625 5.13,3.719 13.54,1.402 1.41,6.059 -12.14,7.929 z m 22.95,268.751 27.55,-1.22 6.53,-7.94 -3.26,-11.67 38.24,-23.79 7.49,0.94 48.95,-55.98 20.02,7 c 31.01,-66.71 48.76,-140.8 49.78,-218.86 l -114.71,0 c -0.5,29.933 -4.22,59.09 -10.65,87.23 l 5.23,7.08 7.11,35.9 -5.35,38.63 -13.82,44.38 -31.98,46.77 7.74,-4.11 3.91,3.92 -25.64,17.39 -1.72,-5.71 25.67,-36.68 14.57,-30.1 10.33,-29.78 3.31,-20.06 5.32,-33.73 -9.63,-0.69 c 0,0 -11.05,20.63 -14.48,29.19 l 5.14,7.64 -9.78,14.01 0,13.98 -7,8.86 -8.68,-1.12 c -3.12,5.78 -6.37,11.5 -9.75,17.12 l 6.13,-3.16 1.67,1.66 -3.29,7.22 7.46,4.2 -3.37,4.22 -11.08,-4.22 4.03,17.41 -6.54,3.75 -5.91,-13.89 c -12.53,18.74 -26.43,36.5 -41.71,52.99 l 32.17,31.22 z m 146,146.93 c 114.06,-119.61 184.72,-280.93 186.55,-458.45 l -114.62,0 c -1.1,87.91 -22.55,170.99 -59.83,244.77 l 1.01,2.07 7.94,-4.19 1.86,6.06 -20.54,35.92 -24.25,33.61 -28.47,23.76 c -9.76,12.22 -19.99,24.04 -30.72,35.4 l 81.07,81.05 z m -337.76,-681.22 -0.08,0.57 0.23,-0.468 c -0.05,-0.032 -0.1,-0.082 -0.15,-0.102 z M 1008.94,243.18 c 384.67,0 697.62,312.98 697.62,697.679 0,360.821 -275.34,658.531 -626.94,694.081 -0.27,-1.35 -0.56,-2.72 -0.83,-4.03 -1.4,-6.75 -2.66,-12.88 -3.67,-18.3 157.46,-15.4 299.2,-85.13 406.24,-190.14 l -76.99,-76.99 2.93,13.52 -10.05,4.49 -13.89,0.79 2.95,8.88 -9.33,31.52 -19.14,21.02 -60.16,31.74 -5.15,-5.53 -10.93,-3.16 c 20.67,-30.45 31.84,-65.59 31.84,-101.16 0,-4.62 -0.11,-9.16 -0.36,-13.64 l 29.84,-37.47 -13.99,-3.26 9.23,-13.94 -26.28,-26.29 -10.59,20.14 c -5.04,-14.06 -11.72,-27.14 -19.9,-39.29 1.95,-1.82 3.97,-3.59 5.89,-5.45 l -81.02,-81.02 c -4.92,4.7 -10.06,9.17 -15.29,13.51 -7.76,-3.6 -15.68,-6.97 -23.74,-10.06 2.33,-1.77 4.64,-3.53 6.91,-5.37 l -4.12,-4.12 -9.48,-5.34 -3.55,-9.47 -5.91,5.92 -17.08,-5.72 4.68,-7.5 11.81,3.16 7.68,-0.6 0.59,4.15 5.93,2.97 1.78,3.54 10.64,2.96 8.3,0.37 c 1.61,-1.45 3.26,-2.89 4.84,-4.39 l -32.14,-32.16 -2.41,3.47 -33.56,-5.59 -7.49,-7.5 -7.39,-0.87 20.89,19.99 -7.49,3.74 -19.44,-26.06 5.7,0.61 -0.34,-9.59 7.13,-2.74 1.41,-10.27 -11.68,2.35 -12.25,-2.26 -29.45,15.16 c 0,0 -1.63,-79.2 -2.45,-119 69.59,-23.406 143.48,-57.219 143.48,-146.047 0,-38.972 -16.87,-70.523 -50.07,-93.793 l 0.29,-0.082 c -0.51,-0.328 -1.02,-0.668 -1.53,-0.988 l -0.16,0.09 c -0.75,-0.508 -1.46,-1.039 -2.22,-1.539 -28.16,-18.61 -64.36,-28.52 -95.74,-38.36 -0.19,-0.082 -0.95,-62.179 -0.95,-62.179 49.93,-24.813 110.49,-60.93 104.92,-164.203 -0.68,-25.43 -10.61,-32.411 -19.07,-34.727 l 0,-0.023 c -29.21,-7.231 -59.38,-12.028 -90.23,-14.25 -0.15,-8 -0.29,-15.668 -0.41,-22.758 134.39,9.211 255.93,65.98 347.81,153.621 l 81.02,-81.012 c -121.39,-116.73 -286.2,-188.601 -467.49,-188.601 -180.323,0 -344.354,71.089 -465.561,186.691 l 81.07,81.059 C 715.418,447.641 835.043,391.762 967.297,382 c -0.117,7 -0.254,14.629 -0.399,22.738 -125.851,9.793 -239.687,63.082 -326.445,144.844 l 21.656,21.648 29.661,-3.41 15.8,17.008 41.395,-1.437 6.125,14.371 -1.453,6.047 c 59.972,-45.547 132.398,-75.469 211.191,-83.688 -0.156,8.82 -0.305,16.559 -0.418,22.809 -87.023,9.691 -165.722,47.308 -226.847,103.742 l 81.101,81.098 c 19.656,-17.571 41.77,-32.45 65.731,-44.098 1.808,7.738 4.546,14.848 8.16,21.297 -21.008,10.41 -40.481,23.453 -57.856,38.832 l 81.274,81.285 c 12.879,-10.367 27.558,-18.551 43.433,-24.188 -0.164,8.086 -0.332,16.508 -0.484,24.446 -9.625,4.187 -18.645,9.511 -26.84,15.847 l 22.934,22.93 c -8.063,2.434 -16.172,4.996 -24.258,7.77 l -15.309,-15.325 c -7.769,8.618 -14.324,18.313 -19.476,28.829 -13.985,6.179 -27.532,13.195 -40.129,21.48 -49.961,32.84 -75.262,79.18 -75.262,137.735 0,44.7 12.508,78.55 32.828,104.81 l -80.851,80.85 c 58.238,55.64 133.14,93.97 216.39,106.56 -0.148,7.85 -0.301,15.51 -0.433,22.79 -89.317,-12.85 -169.68,-53.71 -231.957,-113.35 l -13.653,13.65 c -3.109,-5.43 -6.742,-12.37 -10.883,-21.13 l 8.602,-8.6 C 631.02,1156.07 587.809,1056.97 586.004,947.93 l -114.731,0 c 1.829,140.64 57.883,268.46 148.223,363.38 l 36.453,-36.45 c 1.664,-0.02 3.387,0.02 5.156,0.15 6.45,0.47 13.661,2.48 20.668,6.04 l -46.308,46.31 c 24.48,23.66 51.191,45.02 79.785,63.73 2.285,7.71 4.434,14.43 5.652,16.87 1.414,2.81 8.688,12.42 17.547,23.51 -43.508,-24.09 -83.508,-53.77 -118.984,-88.11 l -81.012,81.01 c 106.266,103.43 246.363,172.25 401.914,188.01 -0.523,2.76 -0.933,4.91 -0.933,4.91 -1.071,5.39 -2.227,11.26 -3.379,17.4 C 585.492,1598.14 311.289,1300.93 311.289,940.859 311.289,556.16 624.25,243.18 1008.94,243.18 Z m 343.4,1206.95 -6.98,11.18 -14.93,7.49 -11.67,-8.91 14.92,-7.93 16.79,-12.12 1.87,10.29 z m -69.45,-323.47 0.45,-8.87 19.88,5.97 6.08,12.13 -13.74,17.97 7.3,10.95 18.57,-13.21 3.39,2.73 -3.68,2.64 -4.21,7.93 7.62,4.4 -7.49,9.79 -17.35,-8.82 -6.09,-10.5 -3.47,-9.54 7.67,-12.86 -2.8,-6.06 -12.13,-4.65 z m -828.945,-514.23 1.407,5.191 -10.321,22.418 -12.226,4.543 21.14,-32.152 z m 468.711,430.84 c 0,-19.27 11.742,-32.79 33.051,-44.508 -0.004,-0.012 -0.078,3.268 -0.187,8.548 l -13.411,13.41 7.082,12.89 5.789,1.62 c -0.437,22.44 -0.906,47.52 -0.976,51.07 l -1.051,-0.14 c -19.562,-10.78 -30.297,-24.03 -30.297,-42.89"
         style="fill:#ffffff;fill-opacity:1;fill-rule:nonzero;stroke:none"
         id="path14"
         inkscape:connector-curvature="0" /><path
         d="m 1050.75,546.391 c 35.94,-18.2 69.16,-43.309 83.05,-91.02 6.06,78.949 -38.19,113.199 -82.11,136.309 0.03,-0.102 -0.96,-45.321 -0.94,-45.289"
         style="fill:#ffffff;fill-opacity:1;fill-rule:nonzero;stroke:none"
         id="path16"
         inkscape:connector-curvature="0" /><path
         d="m 1289.85,1347.59 c 0,71.76 -52.08,151.32 -179.54,179.42 -9.4,2.07 -23.84,3.53 -38.87,4.49 -0.27,-10.8 -0.84,-35.57 -0.84,-35.57 -0.18,-7.77 -0.81,-36.5 -0.95,-42.67 11.75,-1.02 20.44,-2.47 24.48,-3.44 74.08,-17.71 100.6,-60.21 100.6,-102.23 0,-68.06 -58.26,-93.73 -129.78,-113.13 -7.77,-2.1 -15.7,-4.13 -23.7,-6.17 -21.7,-5.41 -44.098,-10.63 -66.113,-16.57 -7.91,-2.11 -15.77,-4.36 -23.496,-6.72 -79.348,-24.15 -147.496,-62.38 -147.496,-160.39 0,-97.071 77.753,-133.352 153.703,-156.723 -0.539,27.89 -1.067,56 -1.614,84.14 -33.539,15.672 -57.179,36.393 -57.179,71.243 0,34.01 21.515,54.55 54.425,69.44 7.297,3.28 15.137,6.31 23.45,9.12 18.914,6.46 40.16,11.87 62.45,17.28 7.77,1.9 15.72,3.81 23.71,5.75 106.93,25.89 226.76,59.33 226.76,202.73"
         style="fill:#ffffff;fill-opacity:1;fill-rule:nonzero;stroke:none"
         id="path18"
         inkscape:connector-curvature="0" /><path
         d="m 905.648,662.98 c 0.192,-39.199 28.981,-60.589 57.887,-76.73 -0.101,6.602 -1.242,67.281 -1.265,68.332 0.636,12.098 12.363,19.348 21.812,23.828 13.922,6.57 28.008,11.328 45.948,17.551 8.54,2.949 15.91,5.859 24.09,8.32 58.02,17.469 125.1,39.758 125.1,110.332 0,70.688 -57.52,99.617 -120.43,121.317 -0.45,-22.52 -1.1,-55.344 -1.56,-78.043 26.57,-10.442 44.16,-23.133 44.16,-43.274 0,-25.246 -27.01,-39.812 -46.13,-47.191 -7.94,-3.102 -20.11,-7.141 -23.45,-8.192 -15.45,-4.8 -32.044,-10.32 -47.509,-16.039 -8.176,-3.05 -16.102,-6.371 -23.5,-10.171 -27.184,-13.95 -55.348,-34.301 -55.153,-70.04"
         style="fill:#ffffff;fill-opacity:1;fill-rule:nonzero;stroke:none"
         id="path20"
         inkscape:connector-curvature="0" /><path
         d="m 944.938,1520.31 c -38.61,-11.03 -61.329,-25.59 -69.903,-28.47 -25.035,-8.31 -60.289,-9.73 -96.683,-49.37 -6.512,-7.06 -22.258,-26.94 -33.473,-43.18 -10.961,-15.85 -11.449,-41.29 -19.543,-54.91 -11.68,-19.81 -8.879,-31.13 -8.879,-31.13 l 0.332,-0.58 c -0.41,-2.46 -2.75,-12.97 -13.379,-24.83 -12.195,-13.51 -28.211,-20.98 -47.281,-17.95 16.582,-8.29 39.527,3.31 39.527,3.31 0,0 -4.375,-12.53 -8.769,-33 18.621,42.16 35.676,57.54 41.035,61.83 8.027,-1.83 24.562,-1.07 55.351,16.58 34.786,19.96 87.114,52.57 101.887,73.17 15.969,22.24 37.918,36.94 61.649,46.46 -0.672,31.1 -1.305,58.75 -1.871,82.07 z m -146.813,-131.51 -17.949,-3.91 21.449,35.12 25.176,-0.8 -28.676,-30.41"
         style="fill:#ffffff;fill-opacity:1;fill-rule:nonzero;stroke:none"
         id="path22"
         inkscape:connector-curvature="0" /><path
         d="m 1016.76,667.828 c -3.33,-1.156 -12.06,-4.887 -17.561,-6.816 -5.824,-2.09 -13.226,-5.063 -13.219,-7.121 0.028,-0.532 5.575,-304.071 5.575,-310.731 0,-62.519 31.885,-62.89 31.885,0 0,4.461 6.4,328.969 6.4,328.969 0,0 -7.67,-2.34 -13.08,-4.301"
         style="fill:#ffffff;fill-opacity:1;fill-rule:nonzero;stroke:none"
         id="path24"
         inkscape:connector-curvature="0" /><path
         d="m 983.82,767.988 c 9.934,3.461 19.77,6.492 28.99,9.321 6.91,2.132 13.33,4.129 19.26,6.066 0.4,19.102 5.8,283.265 6.8,331.305 -23.74,-5.91 -44.393,-11.48 -61.425,-17.71 0.703,-36.04 5.832,-300.111 6.375,-328.982"
         style="fill:#ffffff;fill-opacity:1;fill-rule:nonzero;stroke:none"
         id="path26"
         inkscape:connector-curvature="0" /><path
         d="m 1010.34,1779.64 c -89.406,0 -51.442,-132.61 -44.336,-175.84 0.316,-2.01 7.23,-299.57 8.629,-367.85 13.57,3.58 27.057,6.91 40.127,10.12 9.38,2.29 18.38,4.54 27,6.73 1.39,65.73 7.96,349.7 8.17,351.57 5.34,46.2 52.18,175.27 -39.59,175.27"
         style="fill:#ffffff;fill-opacity:1;fill-rule:nonzero;stroke:none"
         id="path28"
         inkscape:connector-curvature="0" /><path
         d="m 2471.51,1356.96 -1.36,0 -75.75,-413.468 -103.94,0 -97.07,504.548 82.6,0 67.48,-388.88 1.37,0 72.28,388.88 107.4,0 71.61,-388.88 1.37,0 70.22,388.88 79.85,0 -99.14,-504.548 -105.31,0 -71.61,413.468"
         style="fill:#ffffff;fill-opacity:1;fill-rule:nonzero;stroke:none"
         id="path30"
         inkscape:connector-curvature="0" /><path
         d="m 2894.26,1321.54 c 72.27,0 155.6,-39.76 155.6,-191.54 0,-156.148 -83.33,-192.277 -155.6,-192.277 -72.29,0 -156.27,36.129 -156.27,192.277 0,151.78 83.98,191.54 156.27,191.54 z m 0,-320.23 c 55.08,0 67.49,66.52 67.49,128.69 0,62.16 -12.41,127.93 -67.49,127.93 -55.08,0 -68.16,-65.77 -68.16,-127.93 0,-62.17 13.08,-128.69 68.16,-128.69"
         style="fill:#ffffff;fill-opacity:1;fill-rule:nonzero;stroke:none"
         id="path32"
         inkscape:connector-curvature="0" /><path
         d="m 3102.82,1254.32 c 0,23.13 -0.66,44.81 -2.72,61.44 l 77.09,0 c 0.69,-22.41 2.78,-45.54 2.78,-67.94 l 1.36,0 c 10.35,28.9 37.18,73.72 90.18,73.72 5.54,0 9.64,-1.45 14.49,-2.16 l 0,-83.85 c -7.6,2.17 -15.16,3.61 -24.12,3.61 -35.11,0 -73.68,-22.41 -73.68,-91.79 l 0,-203.858 -85.38,0 0,310.828"
         style="fill:#ffffff;fill-opacity:1;fill-rule:nonzero;stroke:none"
         id="path34"
         inkscape:connector-curvature="0" /><path
         d="m 3339.8,943.492 85.3789,0 0,542.133 -85.3789,0 0,-542.133 z"
         style="fill:#ffffff;fill-opacity:1;fill-rule:nonzero;stroke:none"
         id="path36"
         inkscape:connector-curvature="0" /><path
         d="m 3781.37,1485.63 0,-478.53 c 0,-26.737 0.71,-49.87 2.75,-63.608 l -79.84,0 c -1.37,10.852 -2.77,32.539 -2.77,57.818 l -2.06,0 c -13.78,-31.798 -39.23,-63.587 -94.33,-63.587 -88.1,0 -124.59,88.187 -124.59,191.557 0,121.41 46.12,192.26 122.56,192.26 50.93,0 79.15,-30.35 91.55,-59.28 l 1.38,0 0,223.37 85.35,0 z m -152.82,-482.14 c 50.26,0 67.47,57.11 67.47,127.23 0,72.3 -19.28,125.04 -66.12,125.04 -47.51,0 -64.03,-48.42 -64.03,-122.89 0,-86.01 13.1,-129.38 62.68,-129.38"
         style="fill:#ffffff;fill-opacity:1;fill-rule:nonzero;stroke:none"
         id="path38"
         inkscape:connector-curvature="0" /><path
         d="m 4062.63,1448.04 88.13,0 0,-205.29 142.48,0 0,205.29 88.13,0 0,-504.548 -88.13,0 0,222.628 -142.48,0 0,-222.628 -88.13,0 0,504.548"
         style="fill:#ffffff;fill-opacity:1;fill-rule:nonzero;stroke:none"
         id="path40"
         inkscape:connector-curvature="0" /><path
         d="m 4708.39,961.563 c -17.91,-7.954 -55.1,-23.84 -106.01,-23.84 -114.29,0 -163.84,86.007 -163.84,186.487 0,111.32 55.76,197.33 145.93,197.33 76.41,0 141.8,-46.99 141.8,-198.78 l 0,-17.35 -205.12,0 c 0,-63.62 24.08,-101.92 90.17,-101.92 52.32,0 77.09,16.64 92.94,28.92 l 4.13,-70.847 z m -64.72,200.217 c 0,65.79 -20.65,99.06 -59.2,99.06 -44.75,0 -63.32,-49.89 -63.32,-99.06 l 122.52,0"
         style="fill:#ffffff;fill-opacity:1;fill-rule:nonzero;stroke:none"
         id="path42"
         inkscape:connector-curvature="0" /><path
         d="m 4802.72,1294.08 c 24.09,11.56 57.79,27.46 112.22,27.46 110.13,0 135.58,-56.38 135.58,-149.63 l 0,-162.64 c 0,-26.739 2.78,-51.325 4.84,-65.778 l -77.11,0 c -4.14,14.453 -4.81,32.539 -4.81,50.598 l -1.37,0 c -21.36,-30.356 -48.22,-56.367 -99.13,-56.367 -55.1,0 -106.02,39.734 -106.02,109.137 0,101.2 78.48,126.5 186.57,126.5 l 17.18,0 0,13.73 c 0,36.85 -17.18,70.84 -66.08,70.84 -42.68,0 -80.54,-21.7 -97.07,-36.15 l -4.8,72.3 z m 167.95,-168.43 -7.56,0 c -72.99,0 -116.34,-15.91 -116.34,-70.1 0,-33.98 21.34,-57.116 54.38,-57.116 50.95,0 69.52,39.746 69.52,106.266 l 0,20.95"
         style="fill:#ffffff;fill-opacity:1;fill-rule:nonzero;stroke:none"
         id="path44"
         inkscape:connector-curvature="0" /><path
         d="m 5134.52,943.492 85.3789,0 0,542.133 -85.3789,0 0,-542.133 z"
         style="fill:#ffffff;fill-opacity:1;fill-rule:nonzero;stroke:none"
         id="path46"
         inkscape:connector-curvature="0" /><path
         d="m 5326.59,1392.38 85.39,27.46 0,-104.08 70.89,0 0,-65.78 -70.89,0 0,-193 c 0,-39.77 13.74,-51.34 38.54,-51.34 15.13,0 26.15,4.35 32.35,7.97 l 0,-63.614 c -13.06,-6.504 -31.67,-12.273 -57.15,-12.273 -63.33,0 -99.13,30.363 -99.13,108.407 l 0,203.85 -56.41,0 0,65.78 56.41,0 0,76.62"
         style="fill:#ffffff;fill-opacity:1;fill-rule:nonzero;stroke:none"
         id="path48"
         inkscape:connector-curvature="0" /><path
         d="m 5526.93,1485.63 85.37,0 0,-217.57 2.06,0 c 15.15,23.13 35.1,53.48 88.1,53.48 80.58,0 104.65,-62.89 104.65,-138.07 l 0,-239.978 -85.38,0 0,223.358 c 0,57.09 -13.74,80.97 -48.84,80.97 -44.77,0 -60.59,-39.76 -60.59,-87.48 l 0,-216.848 -85.37,0 0,542.138"
         style="fill:#ffffff;fill-opacity:1;fill-rule:nonzero;stroke:none"
         id="path50"
         inkscape:connector-curvature="0" /><path
         d="m 2381.35,809.203 c 99.83,0 191.37,-78.074 191.37,-259.523 0,-181.418 -91.54,-259.481 -191.37,-259.481 -99.84,0 -191.39,78.063 -191.39,259.481 0,181.449 91.55,259.523 191.39,259.523 z m 0,-448.164 c 55.75,0 100.49,49.852 100.49,188.641 0,138.8 -44.74,188.679 -100.49,188.679 -55.77,0 -100.53,-49.879 -100.53,-188.679 0,-138.789 44.76,-188.641 100.53,-188.641"
         style="fill:#ffffff;fill-opacity:1;fill-rule:nonzero;stroke:none"
         id="path52"
         inkscape:connector-curvature="0" /><path
         d="m 2630.23,608.262 c 0,23.129 -0.71,44.777 -2.75,61.429 l 77.1,0 c 0.69,-22.421 2.75,-45.562 2.75,-67.972 l 1.39,0 c 10.32,28.922 37.16,73.75 90.18,73.75 5.51,0 9.62,-1.457 14.44,-2.168 l 0,-83.86 c -7.55,2.188 -15.11,3.598 -24.08,3.598 -35.11,0 -73.66,-22.379 -73.66,-91.777 l 0,-203.864 -85.37,0 0,310.864"
         style="fill:#ffffff;fill-opacity:1;fill-rule:nonzero;stroke:none"
         id="path54"
         inkscape:connector-curvature="0" /><path
         d="m 2866.3,239.59 c 19.96,-11.578 59.91,-31.809 104.67,-31.809 80.55,0 93.63,58.551 93.63,117.11 l 0,35.429 -1.38,0 c -13.76,-28.922 -37.86,-62.922 -93.62,-62.922 -49.6,0 -123.93,34.711 -123.93,185.082 0,102.641 35.13,192.989 128.06,192.989 51.63,0 75.73,-31.09 93.65,-63.61 l 2.75,0 c 0,19.532 2.03,38.301 2.75,57.832 l 77.1,0 c -1.39,-19.531 -2.76,-39.05 -2.76,-58.57 l 0,-274.652 c 0,-116.41 -33.73,-199.52 -163.86,-199.52 -56.43,0 -101.2,15.172 -121.86,23.121 l 4.8,79.52 z m 132.79,123.601 c 53.69,0 75.03,40.481 75.03,125.047 0,78.063 -28.24,120.024 -68.85,119.282 -44.75,-0.739 -61.95,-44.09 -61.95,-120 0,-87.461 26.84,-124.329 55.77,-124.329"
         style="fill:#ffffff;fill-opacity:1;fill-rule:nonzero;stroke:none"
         id="path56"
         inkscape:connector-curvature="0" /><path
         d="m 3239.55,647.988 c 24.1,11.571 57.84,27.481 112.21,27.481 110.16,0 135.63,-56.391 135.63,-149.629 l 0,-162.649 c 0,-26.722 2.75,-51.312 4.8,-65.793 l -77.08,0 c -4.12,14.481 -4.85,32.551 -4.85,50.622 l -1.38,0 c -21.31,-30.36 -48.19,-56.391 -99.11,-56.391 -55.07,0 -106.01,39.769 -106.01,109.152 0,101.199 78.48,126.5 186.55,126.5 l 17.22,0 0,13.719 c 0,36.871 -17.22,70.859 -66.08,70.859 -42.71,0 -80.55,-21.699 -97.07,-36.168 l -4.83,72.297 z m 167.98,-168.429 -7.56,0 c -72.98,0 -116.36,-15.911 -116.36,-70.09 0,-33.981 21.35,-57.117 54.39,-57.117 50.93,0 69.53,39.738 69.53,106.257 l 0,20.95"
         style="fill:#ffffff;fill-opacity:1;fill-rule:nonzero;stroke:none"
         id="path58"
         inkscape:connector-curvature="0" /><path
         d="m 3573.45,608.262 c 0,23.129 -0.71,44.777 -2.77,61.429 l 79.88,0 c 0.69,-18.812 2.74,-38.3 2.74,-57.132 l 2.07,0 -0.69,0 c 12.39,22.429 36.48,62.91 94.33,62.91 80.52,0 104.64,-62.91 104.64,-138.059 l 0,-240.012 -85.37,0 0,223.372 c 0,57.101 -13.78,80.949 -48.88,80.949 -44.76,0 -60.57,-39.731 -60.57,-87.438 l 0,-216.883 -85.38,0 0,310.864"
         style="fill:#ffffff;fill-opacity:1;fill-rule:nonzero;stroke:none"
         id="path60"
         inkscape:connector-curvature="0" /><path
         d="m 3930.59,827.988 88.13,0 0,-88.187 -88.13,0 0,88.187 z m 1.36,-158.297 85.38,0 0,-372.293 -85.38,0 0,372.293"
         style="fill:#ffffff;fill-opacity:1;fill-rule:nonzero;stroke:none"
         id="path62"
         inkscape:connector-curvature="0" /><path
         d="m 4096.77,374.77 151.46,226.949 -146.63,0 0,67.972 232.01,0 0,-76.652 -148.69,-227.668 153.48,0 0,-67.973 -241.63,0 0,77.372"
         style="fill:#ffffff;fill-opacity:1;fill-rule:nonzero;stroke:none"
         id="path64"
         inkscape:connector-curvature="0" /><path
         d="m 4419.21,647.988 c 24.1,11.571 57.84,27.481 112.25,27.481 110.15,0 135.6,-56.391 135.6,-149.629 l 0,-162.649 c 0,-26.722 2.74,-51.312 4.84,-65.793 l -77.09,0 c -4.17,14.481 -4.85,32.551 -4.85,50.622 l -1.39,0 c -21.32,-30.36 -48.18,-56.391 -99.09,-56.391 -55.1,0 -106.03,39.769 -106.03,109.152 0,101.199 78.45,126.5 186.55,126.5 l 17.21,0 0,13.719 c 0,36.871 -17.21,70.859 -66.08,70.859 -42.68,0 -80.56,-21.699 -97.06,-36.168 l -4.86,72.297 z m 168,-168.429 -7.56,0 c -73,0 -116.37,-15.911 -116.37,-70.09 0,-33.981 21.34,-57.117 54.39,-57.117 50.95,0 69.54,39.738 69.54,106.257 l 0,20.95"
         style="fill:#ffffff;fill-opacity:1;fill-rule:nonzero;stroke:none"
         id="path66"
         inkscape:connector-curvature="0" /><path
         d="m 4765.23,746.301 85.37,27.48 0,-104.09 70.92,0 0,-65.8 -70.92,0 0,-193 c 0,-39.75 13.78,-51.282 38.56,-51.282 15.16,0 26.15,4.301 32.36,7.922 l 0,-63.609 c -13.09,-6.524 -31.65,-12.293 -57.14,-12.293 -63.33,0 -99.15,30.359 -99.15,108.43 l 0,203.832 -56.45,0 0,65.8 56.45,0 0,76.61"
         style="fill:#ffffff;fill-opacity:1;fill-rule:nonzero;stroke:none"
         id="path68"
         inkscape:connector-curvature="0" /><path
         d="m 4980.16,827.988 88.11,0 0,-88.187 -88.11,0 0,88.187 z m 10.87,-158.297 85.38,0 0,-372.293 -85.38,0 0,372.293"
         style="fill:#ffffff;fill-opacity:1;fill-rule:nonzero;stroke:none"
         id="path70"
         inkscape:connector-curvature="0" /><path
         d="m 5298.09,675.469 c 72.27,0 155.56,-39.77 155.56,-191.578 0,-156.121 -83.29,-192.262 -155.56,-192.262 -72.31,0 -156.28,36.141 -156.28,192.262 0,151.808 83.97,191.578 156.28,191.578 z m 0,-320.25 c 55.05,0 67.46,66.551 67.46,128.672 0,62.199 -12.41,127.968 -67.46,127.968 -55.08,0 -68.14,-65.769 -68.14,-127.968 0,-62.121 13.06,-128.672 68.14,-128.672"
         style="fill:#ffffff;fill-opacity:1;fill-rule:nonzero;stroke:none"
         id="path72"
         inkscape:connector-curvature="0" /><path
         d="m 5528.04,608.262 c 0,23.129 -0.74,44.777 -2.8,61.429 l 79.86,0 c 0.69,-18.812 2.78,-38.3 2.78,-57.132 l 2.04,0 -0.66,0 c 12.38,22.429 36.46,62.91 94.28,62.91 80.56,0 104.66,-62.91 104.66,-138.059 l 0,-240.012 -85.34,0 0,223.372 c 0,57.101 -13.8,80.949 -48.92,80.949 -44.71,0 -60.54,-39.731 -60.54,-87.438 l 0,-216.883 -85.36,0 0,310.864"
         style="fill:#ffffff;fill-opacity:1;fill-rule:nonzero;stroke:none"
         id="path74"
         inkscape:connector-curvature="0" /></g></g></svg>