<?xml version="1.0" encoding="UTF-8" standalone="no"?>
<svg
   xmlns:dc="http://purl.org/dc/elements/1.1/"
   xmlns:cc="http://creativecommons.org/ns#"
   xmlns:rdf="http://www.w3.org/1999/02/22-rdf-syntax-ns#"
   xmlns:svg="http://www.w3.org/2000/svg"
   xmlns="http://www.w3.org/2000/svg"
   xmlns:sodipodi="http://sodipodi.sourceforge.net/DTD/sodipodi-0.dtd"
   xmlns:inkscape="http://www.inkscape.org/namespaces/inkscape"
   inkscape:version="1.0beta2 (2b71d25, 2019-12-03)"
   sodipodi:docname="logo_accessmod.svg"
   viewBox="0 0 388.56668 424.85333"
   height="424.85333"
   width="388.56668"
   xml:space="preserve"
   id="svg833"
   version="1.1"><metadata
     id="metadata839"><rdf:RDF><cc:Work
         rdf:about=""><dc:format>image/svg+xml</dc:format><dc:type
           rdf:resource="http://purl.org/dc/dcmitype/StillImage" /><dc:title></dc:title></cc:Work></rdf:RDF></metadata><defs
     id="defs837"><clipPath
       id="clipPath891"
       clipPathUnits="userSpaceOnUse"><path
         inkscape:connector-curvature="0"
         id="path889"
         d="m 55.98836,-9.93289 c -2.31432,-13.12485 -9.18132,-25.01869 -19.39073,-33.58524 10.85752,9.11037 23.63659,5.75547 35.91101,-1.33127 l 2.58776,4.48206 C 62.822,-33.28061 53.52713,-23.89093 55.98836,-9.93289 Z m 17.26321,-29.36931 1.84483,-1.06512 -2.58778,-4.48208 -1.84482,1.06513 z m 18.11391,-1.76646 c -5.3257,-4.46872 -8.90785,-10.67313 -10.11513,-17.51966 1.28389,7.28118 -4.18365,11.10727 -10.58656,14.80405 l 2.58777,4.48205 c 6.4029,-3.69678 12.45013,-6.51882 18.11392,-1.76644 z" /></clipPath><clipPath
       id="clipPath911"
       clipPathUnits="userSpaceOnUse"><path
         inkscape:connector-curvature="0"
         id="path909"
         d="M 0,0 H 100 V 100 H 0 Z" /></clipPath><linearGradient
       id="linearGradient917"
       gradientUnits="userSpaceOnUse"
       y2="0"
       x2="100.00128"
       y1="0"
       x1="0"><stop
         id="stop913"
         offset="0"
         style="stop-opacity:1;stop-color:#000000" /><stop
         id="stop915"
         offset="1"
         style="stop-opacity:1;stop-color:#000000" /></linearGradient><clipPath
       id="clipPath949"
       clipPathUnits="userSpaceOnUse"><path
         inkscape:connector-curvature="0"
         id="path947"
         d="m 100.35602,-35.98969 c 6.53293,2.37781 13.69723,2.37781 20.23016,0 -6.94766,2.52875 -8.13672,9.17692 -8.13672,16.57044 h -3.95674 c 0,-7.39352 -1.18904,-14.04169 -8.1367,-16.57044 z m 8.1367,65.85564 v -49.2852 h 3.95674 v 49.2852 z m -5.75468,12.66823 c 4.99447,-1.81784 10.47165,-1.81784 15.46612,0 -5.31154,-1.93326 -5.7547,-7.01582 -5.7547,-12.66823 h -3.95674 c 0,5.65241 -0.44314,10.73497 -5.75468,12.66823 z" /></clipPath><clipPath
       id="clipPath969"
       clipPathUnits="userSpaceOnUse"><path
         inkscape:connector-curvature="0"
         id="path967"
         d="M 0,0 H 100 V 100 H 0 Z" /></clipPath><linearGradient
       id="linearGradient975"
       gradientUnits="userSpaceOnUse"
       y2="0"
       x2="100.00128"
       y1="0"
       x1="0"><stop
         id="stop971"
         offset="0"
         style="stop-opacity:1;stop-color:#000000" /><stop
         id="stop973"
         offset="1"
         style="stop-opacity:1;stop-color:#000000" /></linearGradient><clipPath
       id="clipPath1007"
       clipPathUnits="userSpaceOnUse"><path
         inkscape:connector-curvature="0"
         id="path1005"
         d="m 91.38013,-86.48134 c -5.32558,4.46874 -8.90763,10.67316 -10.11478,17.51964 1.28377,-7.28114 -3.8791,-11.63484 -10.28201,-15.33151 l 1.97828,-3.42659 c 6.40291,3.69667 12.75484,5.9909 18.41851,1.23846 z m -60.85347,-25.73793 42.43499,24.49947 -1.9783,3.42659 -42.43499,-24.49947 z m -8.09363,-11.31758 c -0.92287,5.23418 -3.66138,9.97751 -7.73282,13.39389 4.32994,-3.63327 8.95309,-1.47584 13.84815,1.35028 l 1.97828,-3.42659 c -4.89505,-2.82613 -9.07506,-5.7511 -8.09361,-11.31758 z" /></clipPath><clipPath
       id="clipPath1027"
       clipPathUnits="userSpaceOnUse"><path
         inkscape:connector-curvature="0"
         id="path1025"
         d="M 0,0 H 100 V 100 H 0 Z" /></clipPath><linearGradient
       id="linearGradient1033"
       gradientUnits="userSpaceOnUse"
       y2="0"
       x2="100.00128"
       y1="0"
       x1="0"><stop
         id="stop1029"
         offset="0"
         style="stop-opacity:1;stop-color:#000000" /><stop
         id="stop1031"
         offset="1"
         style="stop-opacity:1;stop-color:#000000" /></linearGradient><clipPath
       id="clipPath1065"
       clipPathUnits="userSpaceOnUse"><path
         inkscape:connector-curvature="0"
         id="path1063"
         d="m -19.39066,53.27484 c 12.52367,4.55829 26.25765,4.55829 38.78132,0 C 6.07196,58.1225 2.58777,70.86702 2.58777,85.04044 h -5.17554 c 0,-14.17342 -3.48419,-26.91794 -16.80289,-31.7656 z m 16.80289,29.92478 v 1.84082 h 5.17554 v -1.84082 z m -7.5273,16.57043 c 6.53293,-2.37782 13.69721,-2.37782 20.23014,0 -6.94765,-2.52876 -7.5273,-9.17693 -7.5273,-16.57043 h -5.17554 c 0,7.3935 -0.57965,14.04167 -7.5273,16.57043 z" /></clipPath><clipPath
       id="clipPath1085"
       clipPathUnits="userSpaceOnUse"><path
         inkscape:connector-curvature="0"
         id="path1083"
         d="M 0,0 H 100 V 100 H 0 Z" /></clipPath><linearGradient
       id="linearGradient1091"
       gradientUnits="userSpaceOnUse"
       y2="0"
       x2="100.00128"
       y1="0"
       x1="0"><stop
         id="stop1087"
         offset="0"
         style="stop-opacity:1;stop-color:#000000" /><stop
         id="stop1089"
         offset="1"
         style="stop-opacity:1;stop-color:#000000" /></linearGradient><clipPath
       id="clipPath1123"
       clipPathUnits="userSpaceOnUse"><path
         inkscape:connector-curvature="0"
         id="path1121"
         d="m -19.09097,104.8597 c -5.32559,4.46875 -8.90763,10.67315 -10.11479,17.51963 1.28378,-7.28113 -3.87911,-11.63484 -10.282,-15.33151 l 1.97828,-3.42659 c 6.40291,3.69667 12.75483,5.99091 18.41851,1.23847 z m -60.85346,-25.73792 42.43498,24.49945 -1.9783,3.42659 -42.43499,-24.49946 z m -8.09363,-11.31761 c -0.92286,5.23419 -3.6614,9.97751 -7.73284,13.39389 4.3299,-3.63326 8.95309,-1.47582 13.84816,1.3503 l 1.9783,-3.42658 c -4.89507,-2.82613 -9.07509,-5.75114 -8.09362,-11.31761 z" /></clipPath><clipPath
       id="clipPath1143"
       clipPathUnits="userSpaceOnUse"><path
         inkscape:connector-curvature="0"
         id="path1141"
         d="M 0,0 H 100 V 100 H 0 Z" /></clipPath><linearGradient
       id="linearGradient1149"
       gradientUnits="userSpaceOnUse"
       y2="0"
       x2="100.00128"
       y1="0"
       x1="0"><stop
         id="stop1145"
         offset="0"
         style="stop-opacity:1;stop-color:#000000" /><stop
         id="stop1147"
         offset="1"
         style="stop-opacity:1;stop-color:#000000" /></linearGradient><clipPath
       id="clipPath1181"
       clipPathUnits="userSpaceOnUse"><path
         inkscape:connector-curvature="0"
         id="path1179"
         d="m 29.20576,122.37933 c -1.20716,-6.84648 -4.7892,-13.05088 -10.11479,-17.51963 5.66368,4.75242 12.01558,2.4582 18.41849,-1.23847 l 1.97829,3.42659 c -6.4029,3.69667 -11.56577,8.0504 -10.28199,15.33151 z m 52.71702,-39.83097 -42.43503,24.49948 -1.9783,-3.42659 42.43501,-24.49947 z m 13.84811,-1.35029 c -4.07144,-3.41637 -6.80995,-8.15969 -7.73282,-13.39389 0.98146,5.56649 -3.19856,8.49147 -8.09361,11.3176 l 1.9783,3.42658 c 4.89505,-2.82612 9.5182,-4.98356 13.84813,-1.35029 z" /></clipPath><clipPath
       id="clipPath1201"
       clipPathUnits="userSpaceOnUse"><path
         inkscape:connector-curvature="0"
         id="path1199"
         d="M 0,0 H 100 V 100 H 0 Z" /></clipPath><linearGradient
       id="linearGradient1207"
       gradientUnits="userSpaceOnUse"
       y2="0"
       x2="100.00128"
       y1="0"
       x1="0"><stop
         id="stop1203"
         offset="0"
         style="stop-opacity:1;stop-color:#000000" /><stop
         id="stop1205"
         offset="1"
         style="stop-opacity:1;stop-color:#000000" /></linearGradient><clipPath
       id="clipPath1239"
       clipPathUnits="userSpaceOnUse"><path
         inkscape:connector-curvature="0"
         id="path1237"
         d="m -36.59763,-43.51813 c -10.20941,8.56655 -17.07641,20.46039 -19.39073,33.58524 2.46123,-13.95804 -6.83364,-23.34772 -19.10804,-30.43445 l 2.58776,-4.48206 c 12.27442,7.08674 25.05349,10.44164 35.91101,1.33127 z m -34.06616,-0.26616 -1.84483,-1.06512 -2.58778,4.48207 1.84484,1.06512 z m -10.58656,-14.80403 c -1.20728,6.84653 -4.78943,13.05094 -10.11513,17.51966 5.6638,-4.75242 11.71103,-1.93034 18.11394,1.76644 l 2.58777,-4.48205 c -6.40291,-3.69678 -11.87049,-7.52287 -10.58658,-14.80405 z" /></clipPath><clipPath
       id="clipPath1259"
       clipPathUnits="userSpaceOnUse"><path
         inkscape:connector-curvature="0"
         id="path1257"
         d="M 0,0 H 100 V 100 H 0 Z" /></clipPath><linearGradient
       id="linearGradient1265"
       gradientUnits="userSpaceOnUse"
       y2="0"
       x2="100.00128"
       y1="0"
       x1="0"><stop
         id="stop1261"
         offset="0"
         style="stop-opacity:1;stop-color:#000000" /><stop
         id="stop1263"
         offset="1"
         style="stop-opacity:1;stop-color:#000000" /></linearGradient><clipPath
       id="clipPath1297"
       clipPathUnits="userSpaceOnUse"><path
         inkscape:connector-curvature="0"
         id="path1295"
         d="m -81.26535,-68.9617 c -1.20715,-6.84648 -4.7892,-13.0509 -10.11478,-17.51964 5.66367,4.75244 12.0156,2.45821 18.41851,-1.23846 l 1.97828,3.42659 c -6.40291,3.69667 -11.56578,8.05037 -10.28201,15.33151 z m 52.71701,-39.83098 -42.435,24.49947 -1.9783,-3.42659 42.435,-24.49947 z m 13.84813,-1.35028 c -4.07144,-3.41638 -6.80995,-8.15971 -7.73282,-13.39389 0.98145,5.56648 -3.19856,8.49145 -8.09361,11.31758 l 1.97828,3.42659 c 4.89506,-2.82612 9.51821,-4.98355 13.84815,-1.35028 z" /></clipPath><clipPath
       id="clipPath1317"
       clipPathUnits="userSpaceOnUse"><path
         inkscape:connector-curvature="0"
         id="path1315"
         d="M 0,0 H 100 V 100 H 0 Z" /></clipPath><linearGradient
       id="linearGradient1323"
       gradientUnits="userSpaceOnUse"
       y2="0"
       x2="100.00128"
       y1="0"
       x1="0"><stop
         id="stop1319"
         offset="0"
         style="stop-opacity:1;stop-color:#000000" /><stop
         id="stop1321"
         offset="1"
         style="stop-opacity:1;stop-color:#000000" /></linearGradient><clipPath
       id="clipPath1355"
       clipPathUnits="userSpaceOnUse"><path
         inkscape:connector-curvature="0"
         id="path1353"
         d="m -120.58618,-35.98969 c 6.53293,2.37781 13.69723,2.37781 20.23016,0 -6.94766,2.52875 -8.1367,9.17692 -8.1367,16.57044 h -3.95674 c 0,-7.39352 -1.18906,-14.04169 -8.13672,-16.57044 z m 8.13672,65.85564 v -49.2852 h 3.95674 v 49.2852 z m -5.7547,12.66823 c 4.99447,-1.81784 10.47165,-1.81784 15.46612,0 -5.31154,-1.93326 -5.75468,-7.01582 -5.75468,-12.66823 h -3.95674 c 0,5.65241 -0.44316,10.73497 -5.7547,12.66823 z" /></clipPath><clipPath
       id="clipPath1375"
       clipPathUnits="userSpaceOnUse"><path
         inkscape:connector-curvature="0"
         id="path1373"
         d="M 0,0 H 100 V 100 H 0 Z" /></clipPath><linearGradient
       id="linearGradient1381"
       gradientUnits="userSpaceOnUse"
       y2="0"
       x2="100.00128"
       y1="0"
       x1="0"><stop
         id="stop1377"
         offset="0"
         style="stop-opacity:1;stop-color:#000000" /><stop
         id="stop1379"
         offset="1"
         style="stop-opacity:1;stop-color:#000000" /></linearGradient></defs><sodipodi:namedview
     inkscape:current-layer="g841"
     inkscape:window-maximized="0"
     inkscape:window-y="208"
     inkscape:window-x="483"
     inkscape:cy="212.42667"
     inkscape:cx="194.28334"
     inkscape:zoom="1.5817223"
     showgrid="false"
     id="namedview835"
     inkscape:window-height="1158"
     inkscape:window-width="1614"
     inkscape:pageshadow="2"
     inkscape:pageopacity="0"
     guidetolerance="10"
     gridtolerance="10"
     objecttolerance="10"
     borderopacity="1"
     inkscape:document-rotation="0"
     bordercolor="#666666"
     pagecolor="#ffffff" /><g
     transform="matrix(1.3333333,0,0,-1.3333333,194.284,217.06934)"
     inkscape:label="logo"
     inkscape:groupmode="layer"
     id="g841"><g
       id="g843"><g
         id="g845"><g
           id="g847"><g
             id="g849"><g
               id="g851"><path
                 inkscape:connector-curvature="0"
                 id="path853"
                 style="fill:#000000;fill-opacity:1;fill-rule:nonzero;stroke:#000000;stroke-width:0.75;stroke-linecap:butt;stroke-linejoin:miter;stroke-miterlimit:10;stroke-dasharray:none;stroke-opacity:1"
                 d="M 56.69363,0 C 56.69363,31.31142 31.31142,56.69363 0,56.69363 -31.31142,56.69363 -56.69363,31.31142 -56.69363,0 c 0,-31.31142 25.38221,-56.69363 56.69363,-56.69363 31.31142,0 56.69363,25.38221 56.69363,56.69363 z" /></g><g
               transform="translate(-49.607)"
               id="g855"><g
                 transform="translate(49.607)"
                 id="g857"><g
                   transform="translate(-49.607)"
                   id="g859" /></g><g
                 transform="translate(49.607)"
                 id="g861" /></g></g><g
             id="g863"><g
               id="g865"><g
                 id="g867"><path
                   inkscape:connector-curvature="0"
                   id="path869"
                   style="fill:#000000;fill-opacity:1;fill-rule:nonzero;stroke:#000000;stroke-width:0.75;stroke-linecap:butt;stroke-linejoin:miter;stroke-miterlimit:10;stroke-dasharray:none;stroke-opacity:1"
                   d="m 140.04515,-63.78033 c 0,16.33351 -13.24054,29.57405 -29.57405,29.57405 -16.33351,0 -29.57405,-13.24054 -29.57405,-29.57405 0,-16.33352 13.24054,-29.57406 29.57405,-29.57406 16.33351,0 29.57405,13.24054 29.57405,29.57406 z" /></g><g
                 transform="translate(82.123,-67.239)"
                 id="g871"><g
                   transform="translate(21.345)"
                   id="g873"><g
                     transform="translate(-249.181,-88.599)"
                     id="g875"><text
                       id="text879"
                       style="font-variant:normal;font-weight:normal;font-size:9.9626px;font-family:CMSSBX10;-inkscape-font-specification:CMSSBX10;writing-mode:lr-tb;fill:#000000;fill-opacity:1;fill-rule:nonzero;stroke:none"
                       transform="matrix(1,0,0,-1,249.181,88.599)"><tspan
                         id="tspan877"
                         sodipodi:role="line"
                         y="0"
                         x="0 7.9152856">HF</tspan></text><g
                       transform="translate(227.836,88.599)"
                       id="g881" /></g></g><g
                   transform="translate(-82.123,67.239)"
                   id="g883" /></g></g><g
               id="g885"><g
                 clip-path="url(#clipPath891)"
                 id="g887"><g
                   transform="translate(49.25417,-28.43863)"
                   id="g893"><path
                     inkscape:connector-curvature="0"
                     id="path895"
                     style="fill:#000000;fill-opacity:1;fill-rule:nonzero;stroke:none"
                     d="m 29.30751,48.76006 -50.11969,28.93837 -56.88396,-98.5196 50.11971,-28.93838 z" /><path
                     inkscape:connector-curvature="0"
                     id="path897"
                     style="fill:#000000;fill-opacity:1;fill-rule:nonzero;stroke:none"
                     d="M 63.32527,29.1187 89.8841,13.78404 33.00014,-84.73557 6.44133,-69.4009 Z" /><g
                     transform="matrix(0.35751,-0.20642,0.56883,0.98518,17.87589,-10.32117)"
                     id="g899"><g
                       id="g901"><g
                         transform="translate(-50,-50)"
                         id="g903"><g
                           id="g905"><g
                             clip-path="url(#clipPath911)"
                             id="g907"><path
                               inkscape:connector-curvature="0"
                               id="path919"
                               style="fill:url(#linearGradient917);stroke:none"
                               d="M 0,0 H 100 V 100 H 0 Z" /></g></g></g></g></g></g></g></g><g
               id="g921"><g
                 id="g923"><g
                   id="g925"><path
                     inkscape:connector-curvature="0"
                     id="path927"
                     style="fill:#000000;fill-opacity:1;fill-rule:nonzero;stroke:#000000;stroke-width:0.75;stroke-linecap:butt;stroke-linejoin:miter;stroke-miterlimit:10;stroke-dasharray:none;stroke-opacity:1"
                     d="m 133.08069,63.78035 c 0,12.48709 -10.1225,22.6096 -22.60959,22.6096 -12.48709,0 -22.6096,-10.12251 -22.6096,-22.6096 0,-12.48709 10.12251,-22.6096 22.6096,-22.6096 12.48709,0 22.60959,10.12251 22.60959,22.6096 z" /></g><g
                   transform="translate(89.21,60.666)"
                   id="g929"><g
                     transform="translate(14.771)"
                     id="g931"><g
                       transform="translate(-249.694,-216.504)"
                       id="g933"><text
                         id="text937"
                         style="font-variant:normal;font-weight:normal;font-size:8.9664px;font-family:CMSSBX10;-inkscape-font-specification:CMSSBX10;writing-mode:lr-tb;fill:#000000;fill-opacity:1;fill-rule:nonzero;stroke:none"
                         transform="matrix(1,0,0,-1,249.694,216.504)"><tspan
                           id="tspan935"
                           sodipodi:role="line"
                           y="0"
                           x="0 5.0310469 8.0446539">hf2</tspan></text><g
                         transform="translate(234.922,216.504)"
                         id="g939" /></g></g><g
                     transform="translate(-89.209,-60.666)"
                     id="g941" /></g></g><g
                 id="g943"><g
                   clip-path="url(#clipPath949)"
                   id="g945"><g
                     transform="translate(110.4711,-34.20628)"
                     id="g951"><path
                       inkscape:connector-curvature="0"
                       id="path953"
                       style="fill:#000000;fill-opacity:1;fill-rule:nonzero;stroke:none"
                       d="M -29.578,0.99628 V -29.57404 H 29.578 V 0.99628 Z" /><path
                       inkscape:connector-curvature="0"
                       id="path955"
                       style="fill:#000000;fill-opacity:1;fill-rule:nonzero;stroke:none"
                       d="M -29.578,74.38077 V 97.98663 H 29.578 V 74.38077 Z" /><g
                       transform="matrix(0,0.75386,-0.59155,0,0,37.6935)"
                       id="g957"><g
                         id="g959"><g
                           transform="translate(-50,-50)"
                           id="g961"><g
                             id="g963"><g
                               clip-path="url(#clipPath969)"
                               id="g965"><path
                                 inkscape:connector-curvature="0"
                                 id="path977"
                                 style="fill:url(#linearGradient975);stroke:none"
                                 d="M 0,0 H 100 V 100 H 0 Z" /></g></g></g></g></g></g></g></g></g><g
               id="g979"><g
                 id="g981"><g
                   id="g983"><path
                     inkscape:connector-curvature="0"
                     id="path985"
                     style="fill:#000000;fill-opacity:1;fill-rule:nonzero;stroke:#000000;stroke-width:0.75;stroke-linecap:butt;stroke-linejoin:miter;stroke-miterlimit:10;stroke-dasharray:none;stroke-opacity:1"
                     d="m 22.60959,-127.56067 c 0,12.48707 -10.12251,22.60959 -22.60959,22.60959 -12.48708,0 -22.60959,-10.12252 -22.60959,-22.60959 0,-12.48709 10.12251,-22.6096 22.60959,-22.6096 12.48708,0 22.60959,10.12251 22.60959,22.6096 z" /></g><g
                   transform="translate(-21.26,-130.673)"
                   id="g987"><g
                     transform="translate(14.771)"
                     id="g989"><g
                       transform="translate(-139.224,-25.165)"
                       id="g991"><text
                         id="text995"
                         style="font-variant:normal;font-weight:normal;font-size:8.9664px;font-family:CMSSBX10;-inkscape-font-specification:CMSSBX10;writing-mode:lr-tb;fill:#000000;fill-opacity:1;fill-rule:nonzero;stroke:none"
                         transform="matrix(1,0,0,-1,139.224,25.165)"><tspan
                           id="tspan993"
                           sodipodi:role="line"
                           y="0"
                           x="0 5.0310469 8.0446539">hf2</tspan></text><g
                         transform="translate(124.453,25.165)"
                         id="g997" /></g></g><g
                     transform="translate(21.26,130.673)"
                     id="g999" /></g></g><g
                 id="g1001"><g
                   clip-path="url(#clipPath1007)"
                   id="g1003"><g
                     transform="translate(84.77782,-78.61525)"
                     id="g1009"><path
                       inkscape:connector-curvature="0"
                       id="path1011"
                       style="fill:#000000;fill-opacity:1;fill-rule:nonzero;stroke:none"
                       d="M 13.97076,-26.19588 40.52957,-10.8612 10.85696,40.53104 -15.70184,25.19638 Z" /><path
                       inkscape:connector-curvature="0"
                       id="path1013"
                       style="fill:#000000;fill-opacity:1;fill-rule:nonzero;stroke:none"
                       d="m -49.84764,-63.04367 -20.50826,-11.84116 -29.6726,51.39226 20.50824,11.84116 z" /><g
                       transform="matrix(-0.65556,-0.37851,0.29672,-0.51392,-32.77858,-18.9257)"
                       id="g1015"><g
                         id="g1017"><g
                           transform="translate(-50,-50)"
                           id="g1019"><g
                             id="g1021"><g
                               clip-path="url(#clipPath1027)"
                               id="g1023"><path
                                 inkscape:connector-curvature="0"
                                 id="path1035"
                                 style="fill:url(#linearGradient1033);stroke:none"
                                 d="M 0,0 H 100 V 100 H 0 Z" /></g></g></g></g></g></g></g></g></g></g><g
             id="g1037"><g
               id="g1039"><g
                 id="g1041"><path
                   inkscape:connector-curvature="0"
                   id="path1043"
                   style="fill:#000000;fill-opacity:1;fill-rule:nonzero;stroke:#000000;stroke-width:0.75;stroke-linecap:butt;stroke-linejoin:miter;stroke-miterlimit:10;stroke-dasharray:none;stroke-opacity:1"
                   d="m 29.57404,127.56068 c 0,16.33352 -13.24054,29.57406 -29.57404,29.57406 -16.3335,0 -29.57404,-13.24054 -29.57404,-29.57406 0,-16.33349 13.24054,-29.57405 29.57404,-29.57405 16.3335,0 29.57404,13.24056 29.57404,29.57405 z" /></g><g
                 transform="translate(-28.347,124.099)"
                 id="g1045"><g
                   transform="translate(21.345)"
                   id="g1047"><g
                     transform="translate(-138.711,-279.937)"
                     id="g1049"><text
                       id="text1053"
                       style="font-variant:normal;font-weight:normal;font-size:9.9626px;font-family:CMSSBX10;-inkscape-font-specification:CMSSBX10;writing-mode:lr-tb;fill:#000000;fill-opacity:1;fill-rule:nonzero;stroke:none"
                       transform="matrix(1,0,0,-1,138.711,279.937)"><tspan
                         id="tspan1051"
                         sodipodi:role="line"
                         y="0"
                         x="0 7.9152856">HF</tspan></text><g
                       transform="translate(117.366,279.937)"
                       id="g1055" /></g></g><g
                   transform="translate(28.347,-124.099)"
                   id="g1057" /></g></g><g
               id="g1059"><g
                 clip-path="url(#clipPath1065)"
                 id="g1061"><g
                   transform="translate(0,56.69363)"
                   id="g1067"><path
                     inkscape:connector-curvature="0"
                     id="path1069"
                     style="fill:#000000;fill-opacity:1;fill-rule:nonzero;stroke:none"
                     d="M -56.70085,0.99628 V -56.69363 H 56.70085 V 0.99628 Z" /><path
                     inkscape:connector-curvature="0"
                     id="path1071"
                     style="fill:#000000;fill-opacity:1;fill-rule:nonzero;stroke:none"
                     d="M -56.70085,40.29672 V 70.86705 H 56.70085 V 40.29672 Z" /><g
                     transform="matrix(0,0.41298,-1.134,0,0,20.6492)"
                     id="g1073"><g
                       id="g1075"><g
                         transform="translate(-50,-50)"
                         id="g1077"><g
                           id="g1079"><g
                             clip-path="url(#clipPath1085)"
                             id="g1081"><path
                               inkscape:connector-curvature="0"
                               id="path1093"
                               style="fill:url(#linearGradient1091);stroke:none"
                               d="M 0,0 H 100 V 100 H 0 Z" /></g></g></g></g></g></g></g></g><g
               id="g1095"><g
                 id="g1097"><g
                   id="g1099"><path
                     inkscape:connector-curvature="0"
                     id="path1101"
                     style="fill:#000000;fill-opacity:1;fill-rule:nonzero;stroke:#000000;stroke-width:0.75;stroke-linecap:butt;stroke-linejoin:miter;stroke-miterlimit:10;stroke-dasharray:none;stroke-opacity:1"
                     d="m -87.8615,63.78035 c 0,12.48709 -10.12251,22.6096 -22.6096,22.6096 -12.48709,0 -22.60959,-10.12251 -22.60959,-22.6096 0,-12.48709 10.1225,-22.6096 22.60959,-22.6096 12.48709,0 22.6096,10.12251 22.6096,22.6096 z" /></g><g
                   transform="translate(-131.73,60.666)"
                   id="g1103"><g
                     transform="translate(14.772)"
                     id="g1105"><g
                       transform="translate(-28.755,-216.504)"
                       id="g1107"><text
                         id="text1111"
                         style="font-variant:normal;font-weight:normal;font-size:8.9664px;font-family:CMSSBX10;-inkscape-font-specification:CMSSBX10;writing-mode:lr-tb;fill:#000000;fill-opacity:1;fill-rule:nonzero;stroke:none"
                         transform="matrix(1,0,0,-1,28.755,216.504)"><tspan
                           id="tspan1109"
                           sodipodi:role="line"
                           y="0"
                           x="0 5.0310469 8.0446539">hf2</tspan></text><g
                         transform="translate(13.983,216.504)"
                         id="g1113" /></g></g><g
                     transform="translate(131.73,-60.666)"
                     id="g1115" /></g></g><g
                 id="g1117"><g
                   clip-path="url(#clipPath1123)"
                   id="g1119"><g
                     transform="translate(-25.69327,112.72578)"
                     id="g1125"><path
                       inkscape:connector-curvature="0"
                       id="path1127"
                       style="fill:#000000;fill-opacity:1;fill-rule:nonzero;stroke:none"
                       d="M 13.97076,-26.19588 40.52957,-10.8612 10.85696,40.53104 -15.70184,25.19638 Z" /><path
                       inkscape:connector-curvature="0"
                       id="path1129"
                       style="fill:#000000;fill-opacity:1;fill-rule:nonzero;stroke:none"
                       d="m -49.84763,-63.04367 -20.50827,-11.84116 -29.6726,51.39226 20.50825,11.84116 z" /><g
                       transform="matrix(-0.65556,-0.37851,0.29672,-0.51392,-32.77858,-18.9257)"
                       id="g1131"><g
                         id="g1133"><g
                           transform="translate(-50,-50)"
                           id="g1135"><g
                             id="g1137"><g
                               clip-path="url(#clipPath1143)"
                               id="g1139"><path
                                 inkscape:connector-curvature="0"
                                 id="path1151"
                                 style="fill:url(#linearGradient1149);stroke:none"
                                 d="M 0,0 H 100 V 100 H 0 Z" /></g></g></g></g></g></g></g></g></g><g
               id="g1153"><g
                 id="g1155"><g
                   id="g1157"><path
                     inkscape:connector-curvature="0"
                     id="path1159"
                     style="fill:#000000;fill-opacity:1;fill-rule:nonzero;stroke:#000000;stroke-width:0.75;stroke-linecap:butt;stroke-linejoin:miter;stroke-miterlimit:10;stroke-dasharray:none;stroke-opacity:1"
                     d="m 133.08069,63.78035 c 0,12.48709 -10.1225,22.6096 -22.60959,22.6096 -12.48709,0 -22.6096,-10.12251 -22.6096,-22.6096 0,-12.48709 10.12251,-22.6096 22.6096,-22.6096 12.48709,0 22.60959,10.12251 22.60959,22.6096 z" /></g><g
                   transform="translate(89.209,60.666)"
                   id="g1161"><g
                     transform="translate(14.772)"
                     id="g1163"><g
                       transform="translate(-249.694,-216.504)"
                       id="g1165"><text
                         id="text1169"
                         style="font-variant:normal;font-weight:normal;font-size:8.9664px;font-family:CMSSBX10;-inkscape-font-specification:CMSSBX10;writing-mode:lr-tb;fill:#000000;fill-opacity:1;fill-rule:nonzero;stroke:none"
                         transform="matrix(1,0,0,-1,249.694,216.504)"><tspan
                           id="tspan1167"
                           sodipodi:role="line"
                           y="0"
                           x="0 5.0310469 8.0446539">hf2</tspan></text><g
                         transform="translate(234.922,216.504)"
                         id="g1171" /></g></g><g
                     transform="translate(-89.209,-60.666)"
                     id="g1173" /></g></g><g
                 id="g1175"><g
                   clip-path="url(#clipPath1181)"
                   id="g1177"><g
                     transform="translate(25.69325,112.72578)"
                     id="g1183"><path
                       inkscape:connector-curvature="0"
                       id="path1185"
                       style="fill:#000000;fill-opacity:1;fill-rule:nonzero;stroke:none"
                       d="m 15.70184,25.19638 -26.55879,15.33466 -29.67261,-51.39224 26.5588,-15.33468 z" /><path
                       inkscape:connector-curvature="0"
                       id="path1187"
                       style="fill:#000000;fill-opacity:1;fill-rule:nonzero;stroke:none"
                       d="M 79.52028,-11.65143 100.02852,-23.49258 70.35591,-74.88484 49.84766,-63.04369 Z" /><g
                       transform="matrix(0.65556,-0.37851,0.29672,0.51392,32.77858,-18.9257)"
                       id="g1189"><g
                         id="g1191"><g
                           transform="translate(-50,-50)"
                           id="g1193"><g
                             id="g1195"><g
                               clip-path="url(#clipPath1201)"
                               id="g1197"><path
                                 inkscape:connector-curvature="0"
                                 id="path1209"
                                 style="fill:url(#linearGradient1207);stroke:none"
                                 d="M 0,0 H 100 V 100 H 0 Z" /></g></g></g></g></g></g></g></g></g></g><g
             id="g1211"><g
               id="g1213"><g
                 id="g1215"><path
                   inkscape:connector-curvature="0"
                   id="path1217"
                   style="fill:#000000;fill-opacity:1;fill-rule:nonzero;stroke:#000000;stroke-width:0.75;stroke-linecap:butt;stroke-linejoin:miter;stroke-miterlimit:10;stroke-dasharray:none;stroke-opacity:1"
                   d="m -80.89705,-63.78033 c 0,16.33351 -13.24054,29.57405 -29.57405,29.57405 -16.33351,0 -29.57405,-13.24054 -29.57405,-29.57405 0,-16.33352 13.24054,-29.57406 29.57405,-29.57406 16.33351,0 29.57405,13.24054 29.57405,29.57406 z" /></g><g
                 transform="translate(-138.817,-67.239)"
                 id="g1219"><g
                   transform="translate(21.345)"
                   id="g1221"><g
                     transform="translate(-28.241,-88.599)"
                     id="g1223"><text
                       id="text1227"
                       style="font-variant:normal;font-weight:normal;font-size:9.9626px;font-family:CMSSBX10;-inkscape-font-specification:CMSSBX10;writing-mode:lr-tb;fill:#000000;fill-opacity:1;fill-rule:nonzero;stroke:none"
                       transform="matrix(1,0,0,-1,28.241,88.599)"><tspan
                         id="tspan1225"
                         sodipodi:role="line"
                         y="0"
                         x="0 7.9152856">HF</tspan></text><g
                       transform="translate(6.896,88.599)"
                       id="g1229" /></g></g><g
                   transform="translate(138.817,67.239)"
                   id="g1231" /></g></g><g
               id="g1233"><g
                 clip-path="url(#clipPath1239)"
                 id="g1235"><g
                   transform="translate(-49.25417,-28.43863)"
                   id="g1241"><path
                     inkscape:connector-curvature="0"
                     id="path1243"
                     style="fill:#000000;fill-opacity:1;fill-rule:nonzero;stroke:none"
                     d="M 27.57643,-49.75955 77.69614,-20.82117 20.81218,77.69843 -29.30751,48.76006 Z" /><path
                     inkscape:connector-curvature="0"
                     id="path1245"
                     style="fill:#000000;fill-opacity:1;fill-rule:nonzero;stroke:none"
                     d="M -6.44131,-69.4009 -33.00014,-84.73557 -89.8841,13.78404 -63.32526,29.1187 Z" /><g
                     transform="matrix(-0.35751,-0.20642,0.56883,-0.98518,-17.87589,-10.32117)"
                     id="g1247"><g
                       id="g1249"><g
                         transform="translate(-50,-50)"
                         id="g1251"><g
                           id="g1253"><g
                             clip-path="url(#clipPath1259)"
                             id="g1255"><path
                               inkscape:connector-curvature="0"
                               id="path1267"
                               style="fill:url(#linearGradient1265);stroke:none"
                               d="M 0,0 H 100 V 100 H 0 Z" /></g></g></g></g></g></g></g></g><g
               id="g1269"><g
                 id="g1271"><g
                   id="g1273"><path
                     inkscape:connector-curvature="0"
                     id="path1275"
                     style="fill:#000000;fill-opacity:1;fill-rule:nonzero;stroke:#000000;stroke-width:0.75;stroke-linecap:butt;stroke-linejoin:miter;stroke-miterlimit:10;stroke-dasharray:none;stroke-opacity:1"
                     d="m 22.60959,-127.56067 c 0,12.48707 -10.12251,22.60959 -22.60959,22.60959 -12.48708,0 -22.60959,-10.12252 -22.60959,-22.60959 0,-12.48709 10.12251,-22.6096 22.60959,-22.6096 12.48708,0 22.60959,10.12251 22.60959,22.6096 z" /></g><g
                   transform="translate(-21.26,-130.673)"
                   id="g1277"><g
                     transform="translate(14.771)"
                     id="g1279"><g
                       transform="translate(-139.224,-25.165)"
                       id="g1281"><text
                         id="text1285"
                         style="font-variant:normal;font-weight:normal;font-size:8.9664px;font-family:CMSSBX10;-inkscape-font-specification:CMSSBX10;writing-mode:lr-tb;fill:#000000;fill-opacity:1;fill-rule:nonzero;stroke:none"
                         transform="matrix(1,0,0,-1,139.224,25.165)"><tspan
                           id="tspan1283"
                           sodipodi:role="line"
                           y="0"
                           x="0 5.0310469 8.0446539">hf2</tspan></text><g
                         transform="translate(124.453,25.165)"
                         id="g1287" /></g></g><g
                     transform="translate(21.26,130.673)"
                     id="g1289" /></g></g><g
                 id="g1291"><g
                   clip-path="url(#clipPath1297)"
                   id="g1293"><g
                     transform="translate(-84.77782,-78.61525)"
                     id="g1299"><path
                       inkscape:connector-curvature="0"
                       id="path1301"
                       style="fill:#000000;fill-opacity:1;fill-rule:nonzero;stroke:none"
                       d="m 15.70184,25.19638 -26.5588,15.33466 -29.67261,-51.39224 26.55881,-15.33468 z" /><path
                       inkscape:connector-curvature="0"
                       id="path1303"
                       style="fill:#000000;fill-opacity:1;fill-rule:nonzero;stroke:none"
                       d="M 79.52026,-11.65141 100.0285,-23.49257 70.3559,-74.88483 49.84764,-63.04367 Z" /><g
                       transform="matrix(0.65556,-0.37851,0.29672,0.51392,32.77858,-18.9257)"
                       id="g1305"><g
                         id="g1307"><g
                           transform="translate(-50,-50)"
                           id="g1309"><g
                             id="g1311"><g
                               clip-path="url(#clipPath1317)"
                               id="g1313"><path
                                 inkscape:connector-curvature="0"
                                 id="path1325"
                                 style="fill:url(#linearGradient1323);stroke:none"
                                 d="M 0,0 H 100 V 100 H 0 Z" /></g></g></g></g></g></g></g></g></g><g
               id="g1327"><g
                 id="g1329"><g
                   id="g1331"><path
                     inkscape:connector-curvature="0"
                     id="path1333"
                     style="fill:#000000;fill-opacity:1;fill-rule:nonzero;stroke:#000000;stroke-width:0.75;stroke-linecap:butt;stroke-linejoin:miter;stroke-miterlimit:10;stroke-dasharray:none;stroke-opacity:1"
                     d="m -87.8615,63.78035 c 0,12.48709 -10.12251,22.6096 -22.6096,22.6096 -12.48709,0 -22.60959,-10.12251 -22.60959,-22.6096 0,-12.48709 10.1225,-22.6096 22.60959,-22.6096 12.48709,0 22.6096,10.12251 22.6096,22.6096 z" /></g><g
                   transform="translate(-131.73,60.666)"
                   id="g1335"><g
                     transform="translate(14.772)"
                     id="g1337"><g
                       transform="translate(-28.755,-216.504)"
                       id="g1339"><text
                         id="text1343"
                         style="font-variant:normal;font-weight:normal;font-size:8.9664px;font-family:CMSSBX10;-inkscape-font-specification:CMSSBX10;writing-mode:lr-tb;fill:#000000;fill-opacity:1;fill-rule:nonzero;stroke:none"
                         transform="matrix(1,0,0,-1,28.755,216.504)"><tspan
                           id="tspan1341"
                           sodipodi:role="line"
                           y="0"
                           x="0 5.0310469 8.0446539">hf2</tspan></text><g
                         transform="translate(13.983,216.504)"
                         id="g1345" /></g></g><g
                     transform="translate(131.73,-60.666)"
                     id="g1347" /></g></g><g
                 id="g1349"><g
                   clip-path="url(#clipPath1355)"
                   id="g1351"><g
                     transform="translate(-110.4711,-34.20628)"
                     id="g1357"><path
                       inkscape:connector-curvature="0"
                       id="path1359"
                       style="fill:#000000;fill-opacity:1;fill-rule:nonzero;stroke:none"
                       d="M -29.578,0.99628 V -29.57404 H 29.578 V 0.99628 Z" /><path
                       inkscape:connector-curvature="0"
                       id="path1361"
                       style="fill:#000000;fill-opacity:1;fill-rule:nonzero;stroke:none"
                       d="M -29.578,74.38077 V 97.98663 H 29.578 V 74.38077 Z" /><g
                       transform="matrix(0,0.75386,-0.59155,0,0,37.6935)"
                       id="g1363"><g
                         id="g1365"><g
                           transform="translate(-50,-50)"
                           id="g1367"><g
                             id="g1369"><g
                               clip-path="url(#clipPath1375)"
                               id="g1371"><path
                                 inkscape:connector-curvature="0"
                                 id="path1383"
                                 style="fill:url(#linearGradient1381);stroke:none"
                                 d="M 0,0 H 100 V 100 H 0 Z" /></g></g></g></g></g></g></g></g></g></g></g><g
           id="g1385"><g
             transform="matrix(10,0,0,10,-36.53,-34.593)"
             id="g1387"><g
               id="g1389"><g
                 transform="translate(-109.183,-121.245)"
                 id="g1391"><text
                   id="text1395"
                   style="font-variant:normal;font-weight:normal;font-size:9.9626px;font-family:CMSSBX10;-inkscape-font-specification:CMSSBX10;writing-mode:lr-tb;fill:#ffffff;fill-opacity:1;fill-rule:nonzero;stroke:none"
                   transform="matrix(1,0,0,-1,109.183,121.245)"><tspan
                     id="tspan1393"
                     y="0"
                     x="0">A</tspan></text><g
                   transform="translate(109.183,121.245)"
                   id="g1397" /></g></g><g
               transform="translate(36.53,34.593)"
               id="g1399" /></g></g></g></g></g></svg>
